<?xml version="1.0" encoding="UTF-8"?>
<svg id="Layer_2" data-name="Layer 2" xmlns="http://www.w3.org/2000/svg" viewBox="0 0 165 51.58">
  <defs>
    <style>
      .cls-1 {
        fill: #e92426;
      }

      .cls-1, .cls-2, .cls-3, .cls-4 {
        stroke-width: 0px;
      }

      .cls-3 {
        fill: #918f90;
      }

      .cls-4 {
        fill: #231f20;
      }
    </style>
  </defs>
  <g id="Layer_1-2" data-name="Layer 1">
    <g>
      <rect class="cls-4" x="56.25" width=".9" height="51.58"/>
      <g>
        <path class="cls-4" d="M39.23,1.38c0-.73.59-1.26,1.29-1.26s1.28.54,1.28,1.26-.59,1.27-1.28,1.27-1.29-.54-1.29-1.27ZM40.52,2.44c.58,0,1.03-.45,1.03-1.06s-.45-1.05-1.03-1.05-1.03.45-1.03,1.05.45,1.06,1.03,1.06ZM40.25,2.11h-.22V.65h.56c.35,0,.52.13.52.42,0,.26-.17.38-.38.4l.42.64h-.25l-.39-.63h-.25v.63ZM40.51,1.29c.19,0,.36-.01.36-.24,0-.18-.16-.22-.32-.22h-.3v.45h.27Z"/>
        <path class="cls-2" d="M5.02,46.87l-.44-2.6c-.12-.75-.29-1.92-.41-2.72h-.05c-.13.81-.31,2.02-.44,2.73l-.47,2.59h1.8ZM2.98,48.56l-.57,2.88H.31l2.62-11.98h2.58l2.38,11.98h-2.11l-.56-2.88h-2.24Z"/>
        <path class="cls-2" d="M12.68,46.08c0-.16,0-.34-.03-.52-.08-.59-.4-1.12-.9-1.12-.87,0-1.19,1.25-1.19,2.71,0,1.68.45,2.64,1.15,2.64.32,0,.69-.16.89-.87.05-.14.07-.33.07-.55v-2.29ZM14.84,39.14v9.81c0,.78.04,1.73.07,2.48h-1.86l-.12-1h-.05c-.31.62-.99,1.14-1.81,1.14-1.79,0-2.67-1.97-2.67-4.46,0-3.03,1.32-4.5,2.76-4.5.75,0,1.24.37,1.49.9h.04v-4.37h2.16Z"/>
        <path class="cls-2" d="M19.33,49.92c.82,0,1.03-1.55,1.03-2.84s-.2-2.81-1.06-2.81c-.91,0-1.1,1.59-1.1,2.81,0,1.48.24,2.84,1.12,2.84h.02ZM19.29,51.58c-1.99,0-3.24-1.6-3.24-4.46,0-3.12,1.6-4.51,3.29-4.51,1.96,0,3.2,1.68,3.2,4.46,0,3.57-1.93,4.51-3.23,4.51h-.02Z"/>
        <path class="cls-2" d="M25.9,48.34c0,.22.04.42.09.55.22.73.58.9.88.9.83,0,1.17-1.06,1.17-2.75,0-1.54-.36-2.6-1.18-2.6-.41,0-.75.44-.87.92-.04.15-.08.38-.08.55v2.42ZM23.74,39.14h2.16v4.52h.03c.42-.67.99-1.05,1.81-1.05,1.63,0,2.44,1.85,2.44,4.27,0,3.06-1.22,4.69-2.8,4.69-.75,0-1.25-.33-1.71-1.18h-.05l-.12,1.04h-1.85c.03-.72.07-1.7.07-2.48v-9.81Z"/>
        <path class="cls-2" d="M35.36,46.27c.01-1.22-.35-2.07-1.03-2.07-.78,0-1.11,1.14-1.14,2.07h2.17ZM33.19,47.79c.03,1.57.85,2.08,1.87,2.08.65,0,1.21-.14,1.62-.3l.29,1.55c-.57.25-1.45.4-2.3.4-2.32,0-3.58-1.58-3.58-4.28,0-2.9,1.47-4.65,3.38-4.65s2.88,1.54,2.88,4.06c0,.57-.02.9-.06,1.15h-4.1Z"/>
        <polygon class="cls-1" points="23.54 0 37.35 0 37.35 33.05 23.54 0"/>
        <polygon class="cls-1" points="13.82 0 0 0 0 33.05 13.82 0"/>
        <polygon class="cls-1" points="18.68 12.18 27.48 33.05 21.71 33.05 19.08 26.4 12.64 26.4 18.68 12.18"/>
      </g>
      <g>
        <g>
          <path class="cls-4" d="M71.68,13.59c.51.26,1.31.53,2.12.53.88,0,1.34-.36,1.34-.92s-.4-.83-1.42-1.19c-1.41-.49-2.32-1.27-2.32-2.5,0-1.44,1.21-2.55,3.2-2.55.96,0,1.66.2,2.16.43l-.43,1.54c-.34-.16-.94-.4-1.77-.4s-1.23.38-1.23.82c0,.54.48.78,1.57,1.19,1.49.55,2.2,1.33,2.2,2.52,0,1.42-1.09,2.64-3.42,2.64-.97,0-1.92-.26-2.4-.53l.39-1.58Z"/>
          <path class="cls-4" d="M82.19,7.71c0,.53-.4.96-1.03.96s-1-.43-.99-.96c-.01-.55.39-.97,1-.97s1,.42,1.02.97ZM82.13,15.56h-1.91v-6.14h1.91v6.14Z"/>
          <rect class="cls-4" x="85.54" y="6.65" width="1.91" height="8.92"/>
          <path class="cls-4" d="M92.3,9.42l.83,2.85c.15.52.27,1.01.35,1.5h.04c.1-.5.2-.97.34-1.5l.79-2.85h2.01l-2.28,6.14h-1.91l-2.24-6.14h2.07Z"/>
          <path class="cls-4" d="M100.7,13.1c.06.79.84,1.17,1.73,1.17.65,0,1.18-.09,1.7-.25l.25,1.29c-.63.25-1.39.39-2.22.39-2.08,0-3.28-1.22-3.28-3.14,0-1.56.97-3.28,3.1-3.28,1.99,0,2.74,1.55,2.74,3.06,0,.33-.04.62-.06.75h-3.96ZM102.95,11.79c0-.46-.2-1.24-1.08-1.24-.8,0-1.13.73-1.18,1.24h2.26Z"/>
          <path class="cls-4" d="M107.75,11.44c0-.9-.03-1.49-.05-2.02h1.65l.06,1.13h.05c.31-.89,1.07-1.27,1.66-1.27.18,0,.26,0,.4.03v1.81c-.14-.04-.3-.06-.51-.06-.71,0-1.18.38-1.31.97-.03.12-.04.28-.04.43v3.11h-1.91v-4.12Z"/>
        </g>
        <g>
          <path class="cls-3" d="M71.57,29.63c.49.3,1.21.55,1.96.55,1.12,0,1.77-.59,1.77-1.44,0-.79-.45-1.24-1.6-1.68-1.38-.49-2.23-1.2-2.23-2.4,0-1.32,1.09-2.3,2.74-2.3.87,0,1.49.2,1.87.41l-.3.89c-.28-.15-.84-.4-1.61-.4-1.16,0-1.59.69-1.59,1.27,0,.79.52,1.18,1.68,1.63,1.43.55,2.16,1.24,2.16,2.49,0,1.31-.97,2.45-2.96,2.45-.82,0-1.71-.25-2.16-.55l.28-.92Z"/>
          <path class="cls-3" d="M84.07,27.87c0,2.25-1.56,3.23-3.03,3.23-1.65,0-2.91-1.2-2.91-3.13,0-2.04,1.33-3.23,3.01-3.23s2.93,1.27,2.93,3.13ZM79.25,27.94c0,1.33.77,2.34,1.85,2.34s1.85-.99,1.85-2.36c0-1.03-.52-2.34-1.82-2.34s-1.87,1.21-1.87,2.36Z"/>
          <rect class="cls-3" x="86.1" y="22.05" width="1.11" height="8.92"/>
          <path class="cls-3" d="M94.78,29.31c0,.63.01,1.18.05,1.66h-.98l-.06-.99h-.02c-.29.49-.93,1.13-2.01,1.13-.95,0-2.1-.53-2.1-2.66v-3.56h1.11v3.37c0,1.16.35,1.93,1.36,1.93.74,0,1.26-.51,1.46-1,.06-.16.1-.36.1-.57v-3.73h1.11v4.42Z"/>
          <path class="cls-3" d="M98.57,23.43v1.46h1.58v.84h-1.58v3.28c0,.75.21,1.18.83,1.18.3,0,.48-.03.64-.08l.05.83c-.21.09-.55.16-.98.16-.52,0-.93-.18-1.19-.48-.31-.33-.43-.87-.43-1.58v-3.31h-.94v-.84h.94v-1.12l1.08-.34Z"/>
          <path class="cls-3" d="M103.25,23.18c.01.38-.26.68-.7.68-.39,0-.67-.3-.67-.68s.29-.69.69-.69.68.3.68.69ZM103.13,30.96h-1.11v-6.08h1.11v6.08Z"/>
          <path class="cls-3" d="M111.09,27.87c0,2.25-1.56,3.23-3.03,3.23-1.64,0-2.91-1.2-2.91-3.13,0-2.04,1.33-3.23,3.01-3.23s2.93,1.27,2.93,3.13ZM106.27,27.94c0,1.33.76,2.34,1.84,2.34s1.85-.99,1.85-2.36c0-1.03-.52-2.34-1.82-2.34s-1.87,1.21-1.87,2.36Z"/>
          <path class="cls-3" d="M113.11,26.53c0-.63-.01-1.14-.05-1.64h.98l.06,1h.03c.3-.58,1.01-1.14,2.01-1.14.84,0,2.15.5,2.15,2.59v3.63h-1.11v-3.5c0-.98-.36-1.8-1.41-1.8-.73,0-1.29.51-1.48,1.13-.05.14-.08.33-.08.52v3.65h-1.1v-4.43Z"/>
          <path class="cls-3" d="M124.03,22.6c.53-.09,1.22-.16,2.1-.16,1.08,0,1.87.25,2.37.7.46.4.74,1.02.74,1.77s-.23,1.37-.65,1.81c-.58.62-1.52.93-2.59.93-.33,0-.63-.01-.88-.08v3.39h-1.09v-8.36ZM125.13,26.68c.24.06.54.09.91.09,1.32,0,2.12-.64,2.12-1.81s-.79-1.66-2-1.66c-.48,0-.84.04-1.03.09v3.29Z"/>
          <path class="cls-3" d="M135.25,29.51c0,.53.03,1.04.1,1.46h-1.01l-.09-.77h-.04c-.34.48-.99.9-1.86.9-1.23,0-1.86-.87-1.86-1.74,0-1.47,1.31-2.27,3.65-2.26v-.13c0-.5-.14-1.41-1.38-1.41-.57,0-1.16.17-1.58.45l-.25-.73c.5-.33,1.23-.54,2-.54,1.86,0,2.31,1.27,2.31,2.49v2.27ZM134.18,27.86c-1.21-.02-2.57.19-2.57,1.37,0,.72.48,1.06,1.04,1.06.79,0,1.29-.5,1.47-1.02.04-.11.06-.24.06-.35v-1.05Z"/>
          <path class="cls-3" d="M137.66,26.78c0-.72-.01-1.33-.05-1.9h.97l.04,1.19h.05c.28-.82.94-1.33,1.68-1.33.13,0,.21.01.31.04v1.04c-.11-.02-.23-.04-.38-.04-.78,0-1.33.59-1.48,1.42-.02.15-.05.33-.05.51v3.24h-1.09v-4.18Z"/>
          <path class="cls-3" d="M144.03,23.43v1.46h1.58v.84h-1.58v3.28c0,.75.21,1.18.83,1.18.3,0,.48-.03.64-.08l.05.83c-.21.09-.55.16-.98.16-.51,0-.93-.18-1.19-.48-.31-.33-.43-.87-.43-1.58v-3.31h-.94v-.84h.94v-1.12l1.08-.34Z"/>
          <path class="cls-3" d="M147.48,26.53c0-.63-.01-1.14-.05-1.64h.98l.06,1h.02c.3-.58,1.01-1.14,2.01-1.14.84,0,2.15.5,2.15,2.59v3.63h-1.11v-3.5c0-.98-.36-1.8-1.41-1.8-.73,0-1.29.51-1.48,1.13-.05.14-.07.33-.07.52v3.65h-1.11v-4.43Z"/>
          <path class="cls-3" d="M155.69,28.13c.03,1.49.98,2.11,2.08,2.11.79,0,1.27-.14,1.68-.31l.19.79c-.39.18-1.05.39-2.02.39-1.87,0-2.99-1.24-2.99-3.08s1.08-3.28,2.85-3.28c1.98,0,2.51,1.75,2.51,2.86,0,.23-.03.4-.04.51h-4.27ZM158.93,27.34c.01-.71-.29-1.8-1.53-1.8-1.12,0-1.61,1.03-1.7,1.8h3.23Z"/>
          <path class="cls-3" d="M162,26.78c0-.72-.01-1.33-.05-1.9h.97l.04,1.19h.05c.28-.82.94-1.33,1.68-1.33.12,0,.21.01.31.04v1.04c-.11-.02-.23-.04-.38-.04-.78,0-1.33.59-1.48,1.42-.02.15-.05.33-.05.51v3.24h-1.09v-4.18Z"/>
        </g>
        <g>
          <path class="cls-2" d="M71.37,44.81c-.08,0-.08-.05-.08-.1v-.88c0-.08,0-.11.05-.15.51-.38,1.23-.9,1.82-1.44,1.17-1.05,1.36-1.69,1.36-2.22,0-.7-.38-1.15-1.29-1.15-.71,0-1.19.21-1.68.46-.07.03-.1.01-.1-.06v-1.21c0-.07.01-.09.07-.13.6-.32,1.28-.49,2.07-.49,1.73,0,2.55,1.11,2.55,2.37,0,.84-.31,1.69-1.26,2.58-.55.54-.88.78-1.28,1.09.45-.05.93-.05,1.62-.05h1.19c.09,0,.12.02.1.08l-.28,1.19c-.02.07-.05.09-.11.09h-4.75Z"/>
          <path class="cls-2" d="M78.31,41.17c0-2.17,1-3.72,2.76-3.72,2.15,0,2.72,1.93,2.72,3.72,0,1.96-.77,3.76-2.72,3.76s-2.76-1.64-2.76-3.76ZM79.91,41.13c0,1.59.39,2.44,1.16,2.44s1.13-.78,1.13-2.4-.38-2.37-1.15-2.37c-.67,0-1.14.69-1.14,2.33Z"/>
          <path class="cls-2" d="M86.91,44.81c-.07,0-.09-.02-.09-.09v-5.53c-.33.15-.83.3-1.14.34-.07.01-.09-.01-.09-.08v-1.13c0-.06.01-.09.07-.1.53-.13,1.14-.38,1.6-.67.05-.03.13-.05.18-.05h.91c.06,0,.07.03.07.08v7.12c0,.07-.02.09-.08.09h-1.42Z"/>
          <path class="cls-2" d="M91.66,43.64c0-.07.01-.08.08-.09,1.3-.22,2.22-.78,2.64-1.44-.38.15-.76.18-1.09.18-1.29,0-2.46-.82-2.46-2.32,0-1.39,1.08-2.53,2.75-2.53,1.57,0,2.73,1.15,2.73,3.03,0,2.5-1.96,4.19-4.54,4.45-.08.01-.1-.02-.1-.09v-1.19ZM94.69,40.83c0-.06.02-.22.02-.34,0-1.06-.44-1.69-1.21-1.69-.65,0-1.04.48-1.04,1.11,0,.78.53,1.13,1.28,1.13.4,0,.7-.06.95-.21Z"/>
          <path class="cls-2" d="M98.53,42.54c-.06,0-.08-.03-.08-.09v-1.21s.02-.08.08-.08h2.77s.07.01.07.08v1.22c0,.07-.02.08-.06.08h-2.78Z"/>
          <path class="cls-2" d="M103.27,44.81c-.08,0-.08-.05-.08-.1v-.88c0-.08,0-.11.05-.15.51-.38,1.23-.9,1.82-1.44,1.17-1.05,1.36-1.69,1.36-2.22,0-.7-.38-1.15-1.29-1.15-.71,0-1.2.21-1.68.46-.07.03-.1.01-.1-.06v-1.21c0-.07.01-.09.07-.13.6-.32,1.28-.49,2.07-.49,1.74,0,2.55,1.11,2.55,2.37,0,.84-.31,1.69-1.26,2.58-.55.54-.88.78-1.28,1.09.45-.05.93-.05,1.62-.05h1.2c.09,0,.11.02.1.08l-.28,1.19c-.02.07-.05.09-.12.09h-4.75Z"/>
          <path class="cls-2" d="M110.21,41.17c0-2.17,1-3.72,2.76-3.72,2.15,0,2.72,1.93,2.72,3.72,0,1.96-.77,3.76-2.72,3.76s-2.76-1.64-2.76-3.76ZM111.8,41.13c0,1.59.39,2.44,1.16,2.44s1.13-.78,1.13-2.4-.38-2.37-1.15-2.37c-.67,0-1.14.69-1.14,2.33Z"/>
          <path class="cls-2" d="M117.63,44.81c-.08,0-.08-.05-.08-.1v-.88c0-.08,0-.11.05-.15.51-.38,1.23-.9,1.82-1.44,1.17-1.05,1.36-1.69,1.36-2.22,0-.7-.38-1.15-1.29-1.15-.71,0-1.2.21-1.68.46-.07.03-.1.01-.1-.06v-1.21c0-.07.01-.09.07-.13.6-.32,1.28-.49,2.07-.49,1.74,0,2.55,1.11,2.55,2.37,0,.84-.31,1.69-1.26,2.58-.55.54-.88.78-1.28,1.09.45-.05.93-.05,1.62-.05h1.2c.09,0,.11.02.1.08l-.28,1.19c-.02.07-.05.09-.12.09h-4.75Z"/>
          <path class="cls-2" d="M124.83,44.81c-.08,0-.08-.05-.08-.1v-.88c0-.08,0-.11.05-.15.51-.38,1.23-.9,1.82-1.44,1.17-1.05,1.36-1.69,1.36-2.22,0-.7-.38-1.15-1.29-1.15-.71,0-1.2.21-1.68.46-.07.03-.1.01-.1-.06v-1.21c0-.07.01-.09.07-.13.6-.32,1.28-.49,2.07-.49,1.74,0,2.55,1.11,2.55,2.37,0,.84-.31,1.69-1.26,2.58-.55.54-.88.78-1.28,1.09.45-.05.93-.05,1.62-.05h1.2c.09,0,.11.02.1.08l-.28,1.19c-.02.07-.05.09-.12.09h-4.75Z"/>
        </g>
      </g>
    </g>
  </g>
</svg>