<?xml version="1.0" encoding="UTF-8"?>
<svg id="Layer_2" data-name="Layer 2" xmlns="http://www.w3.org/2000/svg" viewBox="0 0 142.57 36.41">
  <defs>
    <style>
      .cls-1, .cls-2 {
        stroke-width: 0px;
      }

      .cls-2 {
        fill: none;
      }
    </style>
  </defs>
  <g id="Layer_1-2" data-name="Layer 1">
    <g>
      <rect class="cls-2" width="142.57" height="36.41"/>
      <g>
        <path class="cls-1" d="M29.55,6.59c-.05.02-.11.04-.16.06-.84.3-1.68.6-2.52.9-1.59.56-3.19,1.1-4.79,1.67-1.07.38-2.05.93-2.94,1.64-.22.17-.41.37-.58.59-.32.4-.38.85-.26,1.33.05.19.15.36.29.5.27.27.59.44.94.57.45.17.92.27,1.39.33,1.03.14,2.07.17,3.11.14.68-.02,1.36-.07,2.03-.13.08,0,.17,0,.26-.01,0,0,.01,0,.03.02-.48.2-.95.37-1.43.52-.49.16-.97.32-1.46.46-.49.14-.98.25-1.48.38.02.03.03.07.05.1.41.69.66,1.43.74,2.23.16,1.55-.24,2.95-1.15,4.2-.69.96-1.57,1.72-2.58,2.32-.24.14-.5.24-.76.33-.2.08-.41.16-.6.25-1.03.49-2.08.94-3.15,1.33-.12.04-.24.08-.36.12-.09.03-.15.09-.18.18-.31.84-.62,1.67-.93,2.51-.08.22-.17.45-.25.67-.01.04-.03.08-.06.11.11-.84.29-1.67.42-2.51-.74.7-1.57,1.28-2.42,1.82.26-.25.52-.49.77-.74.26-.26.5-.52.75-.79.24-.27.48-.54.71-.82-1.14.34-2.27.65-3.43.89.03-.01.05-.03.08-.03.88-.27,1.74-.6,2.59-.95.2-.08.4-.18.59-.27.1-.05.2-.09.31-.13.19-.06.29-.2.33-.39.03-.16.04-.32.07-.48.09-.5.19-1.01.28-1.51.15-.84.3-1.67.45-2.51.17-.93.33-1.87.5-2.8.16-.88.31-1.76.47-2.65.13-.73.27-1.46.4-2.19.08-.44.14-.88.21-1.33.07-.46.24-.89.43-1.31.49-1.03,1.22-1.85,2.14-2.5.75-.53,1.58-.92,2.45-1.23.86-.3,1.73-.51,2.63-.67.75-.13,1.5-.22,2.26-.27.39-.03.78-.04,1.18-.06.39-.01.78-.02,1.17-.02.46,0,.92.01,1.38.07.03,0,.05,0,.08.01,0,0,0,.02,0,.03ZM18.19,15.52c-1.27,3.38-2.54,6.76-3.8,10.13,0,0,.01.01.02.02.04-.02.09-.05.13-.07.9-.55,1.74-1.18,2.5-1.92.46-.45.87-.96,1.28-1.45.76-.92,1.17-2,1.26-3.19.06-.83-.02-1.65-.24-2.45-.08-.28-.17-.54-.26-.82-.02-.05-.04-.09-.11-.1-.21-.03-.42-.08-.63-.12-.05,0-.09-.02-.15-.03Z"/>
        <path class="cls-1" d="M18.7,12.28s.04-.06.06-.08c.25-.34.5-.68.76-1.02.03-.04.06-.07.12-.07.44,0,.87,0,1.31,0,.02,0,.04,0,.07,0-.02.03-.04.06-.05.08-.25.34-.5.67-.75,1.01-.04.05-.08.08-.15.08-.43,0-.86,0-1.29,0-.02,0-.04,0-.07,0Z"/>
      </g>
    </g>
  </g>
</svg>