<?xml version="1.0" encoding="utf-8"?>
<!-- Generator: Adobe Illustrator 28.2.0, SVG Export Plug-In . SVG Version: 6.00 Build 0)  -->
<svg version="1.1" id="Layer_1" xmlns="http://www.w3.org/2000/svg" xmlns:xlink="http://www.w3.org/1999/xlink" x="0px" y="0px"
	 viewBox="0 0 320 98" style="enable-background:new 0 0 320 98;" xml:space="preserve">
<style type="text/css">
	.st0{fill:#FFFFFF;}
	.st1{clip-path:url(#SVGID_00000024692570512530038640000008052247991909601691_);}
	.st2{clip-path:url(#SVGID_00000143615535978734895820000012233752155079588787_);}
	.st3{clip-path:url(#SVGID_00000160878103020461028290000009068765563163268756_);}
	.st4{clip-path:url(#SVGID_00000082329720932304511610000001128926544159449480_);}
	.st5{clip-path:url(#SVGID_00000090988181838214442170000016607113424980377747_);}
	.st6{clip-path:url(#SVGID_00000129180596996276892270000003976590546770597510_);}
</style>
<g>
	<rect width="320" height="98"/>
	<g>
		<g>
			<path class="st0" d="M52.8,61.5H40.9v-25h11.5c1.6,0,3,0.2,4.2,0.7c1.2,0.4,2.1,1.1,2.7,2c0.6,0.9,0.9,2.1,0.9,3.5
				s-0.4,2.6-1.2,3.6c-0.8,0.9-2,1.5-3.7,1.8v0.3c1.9,0.2,3.4,0.9,4.4,2s1.5,2.5,1.5,4.2c0,1.4-0.3,2.6-1,3.6s-1.6,1.8-2.8,2.4
				C56,61.2,54.5,61.5,52.8,61.5z M44.9,40.1v6.7H52c1.5,0,2.6-0.2,3.2-0.7c0.6-0.5,1-1.4,1-2.6c0-1.2-0.3-2.1-0.9-2.6
				c-0.6-0.5-1.7-0.7-3.1-0.7h-7.3V40.1z M44.9,50.2v7.6h7.8c1.5,0,2.6-0.3,3.3-0.8s1-1.5,1-3s-0.4-2.5-1.1-3s-1.8-0.8-3.3-0.8H44.9
				z"/>
			<path class="st0" d="M72.4,61.8c-1.9,0-3.5-0.4-4.9-1.2s-2.4-1.9-3.2-3.4c-0.8-1.5-1.1-3.1-1.1-5s0.4-3.6,1.1-5
				c0.8-1.4,1.8-2.6,3.2-3.4c1.4-0.8,3-1.2,4.9-1.2s3.5,0.4,4.9,1.2s2.4,1.9,3.1,3.4c0.7,1.4,1.1,3.1,1.1,5s-0.4,3.6-1.1,5
				s-1.8,2.6-3.1,3.4C75.9,61.4,74.3,61.8,72.4,61.8z M72.4,58.3c2,0,3.3-0.5,4.1-1.5c0.8-1,1.1-2.5,1.1-4.6s-0.4-3.6-1.1-4.6
				c-0.8-1-2.1-1.5-4.1-1.5s-3.3,0.5-4.1,1.5c-0.8,1-1.2,2.5-1.2,4.6s0.4,3.6,1.2,4.6S70.4,58.3,72.4,58.3z"/>
			<path class="st0" d="M93.1,61.8c-1.9,0-3.5-0.4-4.9-1.2s-2.4-1.9-3.2-3.4s-1.1-3.1-1.1-5s0.4-3.6,1.1-5c0.8-1.4,1.8-2.6,3.2-3.4
				c1.4-0.8,3-1.2,4.9-1.2s3.5,0.4,4.9,1.2s2.4,1.9,3.1,3.4c0.7,1.4,1.1,3.1,1.1,5s-0.4,3.6-1.1,5s-1.8,2.6-3.1,3.4
				C96.7,61.4,95,61.8,93.1,61.8z M93.1,58.3c2,0,3.3-0.5,4.1-1.5c0.8-1,1.1-2.5,1.1-4.6s-0.4-3.6-1.1-4.6c-0.8-1-2.1-1.5-4.1-1.5
				s-3.3,0.5-4.1,1.5c-0.8,1-1.2,2.5-1.2,4.6s0.4,3.6,1.2,4.6C89.8,57.8,91.2,58.3,93.1,58.3z"/>
			<path class="st0" d="M109.3,61.5h-4v-25h4V61.5z M122.5,61.5h-4.7l-4.8-7.6h-5.9v-3.6h5.9l5-7.3h4.7l-6.4,8.7L122.5,61.5z"/>
			<path class="st0" d="M134.4,61.5h-4.2l9.7-24.9h5.8l9.7,24.9H151l-6.5-16.7l-1.6-4.6h-0.3l-1.6,4.6L134.4,61.5z M150.6,54.9H135
				v-3.6h15.6V54.9z"/>
			<path class="st0" d="M175.7,61.8c-2.4,0-4.5-0.5-6.2-1.6s-3.1-2.5-4-4.5c-0.9-1.9-1.4-4.2-1.4-6.8s0.5-4.9,1.4-6.8
				c0.9-1.9,2.3-3.4,4-4.5s3.8-1.6,6.2-1.6c2.2,0,4.1,0.4,5.7,1.2c1.6,0.8,2.8,1.9,3.7,3.3c0.9,1.4,1.3,3.2,1.3,5.2v0.2h-4.3v-0.3
				c0-2-0.5-3.5-1.5-4.4s-2.7-1.4-5.1-1.4c-1.7,0-3.1,0.3-4.2,0.9c-1.1,0.6-1.8,1.6-2.3,2.9c-0.5,1.3-0.7,3.1-0.7,5.2
				c0,2.1,0.2,3.9,0.7,5.2s1.3,2.3,2.3,2.9c1.1,0.6,2.5,0.9,4.2,0.9c2.4,0,4-0.5,5.1-1.4c1-0.9,1.5-2.4,1.5-4.4v-0.1h4.3v0.2
				c0,2-0.4,3.8-1.3,5.2c-0.9,1.4-2.1,2.6-3.7,3.3C179.9,61.4,178,61.8,175.7,61.8z"/>
			<path class="st0" d="M194.8,61.8c-1.7,0-3.1-0.4-4.2-1.3c-1.1-0.8-1.7-2.1-1.7-3.7c0-1,0.2-1.9,0.7-2.6s1.2-1.3,2.1-1.7
				c0.9-0.4,2-0.8,3.3-0.9l6.8-1v2.9l-6.3,0.9c-1.1,0.2-1.8,0.4-2.2,0.7s-0.6,0.8-0.6,1.5s0.3,1.2,0.8,1.6s1.3,0.5,2.5,0.5
				c0.9,0,1.8-0.1,2.6-0.4c0.8-0.3,1.5-0.8,2.1-1.5c0.5-0.7,0.8-1.7,0.8-2.9l0.5,4.7h-0.6c-0.3,0.6-0.8,1.1-1.5,1.6
				c-0.6,0.5-1.4,0.9-2.2,1.2C197,61.7,196,61.8,194.8,61.8z M205.4,61.5h-3.7v-3.6l-0.1-1v-7.1c0-1.4-0.3-2.3-1-2.8
				s-1.7-0.7-3.2-0.7s-2.5,0.3-3.1,0.8s-0.9,1.4-0.9,2.6v0.6h-3.9v-0.4c0-1.4,0.3-2.6,1-3.7c0.7-1.1,1.6-1.9,2.9-2.5
				c1.2-0.6,2.7-0.9,4.3-0.9c1.7,0,3.1,0.3,4.3,1c1.2,0.6,2,1.5,2.6,2.7s0.9,2.5,0.9,4v11H205.4z"/>
			<path class="st0" d="M213.3,61.5h-4v-25h4V61.5z"/>
			<path class="st0" d="M221.4,61.5h-4v-25h4V61.5z"/>
		</g>
		<g>
			<g>
				<path class="st0" d="M274.9,46.4h-41.1c-1.4,0-2.2,0.8-2.2,2.3s0.7,2.3,2.2,2.3h41.1c1.2,0,2.2-1,2.2-2.3S276.1,46.4,274.9,46.4
					z"/>
				<g>
					<g>
						<path id="SVGID_1_" class="st0" d="M274.9,46.4h-41.1c-1.4,0-2.2,0.8-2.2,2.3s0.7,2.3,2.2,2.3h41.1c1.2,0,2.2-1,2.2-2.3
							S276.1,46.4,274.9,46.4z"/>
					</g>
					<g>
						<defs>
							<path id="SVGID_00000002383324494302698650000009186269029956365748_" d="M274.9,46.4h-41.1c-1.4,0-2.2,0.8-2.2,2.3
								s0.7,2.3,2.2,2.3h41.1c1.2,0,2.2-1,2.2-2.3S276.1,46.4,274.9,46.4z"/>
						</defs>
						<clipPath id="SVGID_00000141416501576425963130000014873228116653354429_">
							<use xlink:href="#SVGID_00000002383324494302698650000009186269029956365748_"  style="overflow:visible;"/>
						</clipPath>
						<g style="clip-path:url(#SVGID_00000141416501576425963130000014873228116653354429_);">
							<g>
								<rect x="223.6" y="16.7" class="st0" width="66" height="66"/>
								<g>
									<g>
										
											<rect id="SVGID_00000049913430886518668400000013562564235453024919_" x="223.6" y="16.7" class="st0" width="66" height="66"/>
									</g>
									<g>
										<defs>
											<rect id="SVGID_00000018211516169491535030000018353394108145533627_" x="223.6" y="16.7" width="66" height="66"/>
										</defs>
										<clipPath id="SVGID_00000089533804964904986430000015230176818069195181_">
											<use xlink:href="#SVGID_00000018211516169491535030000018353394108145533627_"  style="overflow:visible;"/>
										</clipPath>
										<g style="clip-path:url(#SVGID_00000089533804964904986430000015230176818069195181_);">
											<rect x="228.3" y="43.1" class="st0" width="52.1" height="11.2"/>
										</g>
									</g>
								</g>
							</g>
						</g>
					</g>
				</g>
			</g>
			<g>
				<path class="st0" d="M275.3,47l-12.5,10.6c-2.1,1.9-1.8,1.7-0.3,3.3c1.5,1.7,1.5,1.8,3.3,0.2l12.5-10.6c1-0.8,1.1-2.3,0.3-3.3
					C277.7,46.3,276.2,46.1,275.3,47z"/>
				<g>
					<g>
						<path id="SVGID_00000026156765155859324510000018005782000618637980_" class="st0" d="M275.3,47l-12.5,10.6
							c-2.1,1.9-1.8,1.7-0.3,3.3c1.5,1.7,1.5,1.8,3.3,0.2l12.5-10.6c1-0.8,1.1-2.3,0.3-3.3C277.7,46.3,276.2,46.1,275.3,47z"/>
					</g>
					<g>
						<defs>
							<path id="SVGID_00000124123897607733854850000001378964139980722855_" d="M275.3,47l-12.5,10.6c-2.1,1.9-1.8,1.7-0.3,3.3
								c1.5,1.7,1.5,1.8,3.3,0.2l12.5-10.6c1-0.8,1.1-2.3,0.3-3.3C277.7,46.3,276.2,46.1,275.3,47z"/>
						</defs>
						<clipPath id="SVGID_00000129891796519475004040000000510162605683338374_">
							<use xlink:href="#SVGID_00000124123897607733854850000001378964139980722855_"  style="overflow:visible;"/>
						</clipPath>
						<g style="clip-path:url(#SVGID_00000129891796519475004040000000510162605683338374_);">
							<g>
								<rect x="223.6" y="16.7" class="st0" width="66" height="66"/>
								<g>
									<g>
										
											<rect id="SVGID_00000032634873215497879300000000485262972524647859_" x="223.6" y="16.7" class="st0" width="66" height="66"/>
									</g>
									<g>
										<defs>
											<rect id="SVGID_00000172412187555571412260000015699795421822637955_" x="223.6" y="16.7" width="66" height="66"/>
										</defs>
										<clipPath id="SVGID_00000071522665269893599360000002677127952898118057_">
											<use xlink:href="#SVGID_00000172412187555571412260000015699795421822637955_"  style="overflow:visible;"/>
										</clipPath>
										<g style="clip-path:url(#SVGID_00000071522665269893599360000002677127952898118057_);">
											<rect x="258" y="43.1" class="st0" width="24.4" height="22.4"/>
										</g>
									</g>
								</g>
							</g>
						</g>
					</g>
				</g>
			</g>
			<g>
				<path class="st0" d="M275.3,50.5c-0.6-0.6-4.8-4.1-12.5-10.6c-1.3-1.1-1.3-2.2-0.3-3.3c1.1-1.1,2.2-1.2,3.3-0.3l12.5,10.6
					c1.1,0.8,1.1,2.3,0.3,3.3C277.7,51.1,276.2,51.3,275.3,50.5z"/>
				<g>
					<g>
						<path id="SVGID_00000065060774649865703580000013484984880636150950_" class="st0" d="M275.3,50.5c-0.6-0.6-4.8-4.1-12.5-10.6
							c-1.3-1.1-1.3-2.2-0.3-3.3c1.1-1.1,2.2-1.2,3.3-0.3l12.5,10.6c1.1,0.8,1.1,2.3,0.3,3.3C277.7,51.1,276.2,51.3,275.3,50.5z"/>
					</g>
					<g>
						<defs>
							<path id="SVGID_00000039131283955932426110000009279795318055380397_" d="M275.3,50.5c-0.6-0.6-4.8-4.1-12.5-10.6
								c-1.3-1.1-1.3-2.2-0.3-3.3c1.1-1.1,2.2-1.2,3.3-0.3l12.5,10.6c1.1,0.8,1.1,2.3,0.3,3.3C277.7,51.1,276.2,51.3,275.3,50.5z"/>
						</defs>
						<clipPath id="SVGID_00000088101402830151181270000009381631525855402922_">
							<use xlink:href="#SVGID_00000039131283955932426110000009279795318055380397_"  style="overflow:visible;"/>
						</clipPath>
						<g style="clip-path:url(#SVGID_00000088101402830151181270000009381631525855402922_);">
							<g>
								<rect x="223.6" y="16.7" class="st0" width="66" height="66"/>
								<g>
									<g>
										
											<rect id="SVGID_00000137109970934310609830000001422787755015735712_" x="223.6" y="16.7" class="st0" width="66" height="66"/>
									</g>
									<g>
										<defs>
											<rect id="SVGID_00000034789143983402131250000006894388600562539670_" x="223.6" y="16.7" width="66" height="66"/>
										</defs>
										<clipPath id="SVGID_00000049933083928126085390000004356781631341074349_">
											<use xlink:href="#SVGID_00000034789143983402131250000006894388600562539670_"  style="overflow:visible;"/>
										</clipPath>
										<g style="clip-path:url(#SVGID_00000049933083928126085390000004356781631341074349_);">
											<rect x="258" y="32.1" class="st0" width="24.4" height="22.2"/>
										</g>
									</g>
								</g>
							</g>
						</g>
					</g>
				</g>
			</g>
		</g>
	</g>
</g>
</svg>
