<?xml version="1.0" encoding="UTF-8"?>
<svg id="Layer_2" data-name="Layer 2" xmlns="http://www.w3.org/2000/svg" viewBox="0 0 400 373.33">
  <defs>
    <style>
      .cls-1 {
        fill: #ffe7bb;
      }

      .cls-1, .cls-2 {
        stroke-width: 0px;
      }

      .cls-2 {
        fill: #3f2b00;
      }
    </style>
  </defs>
  <g id="Layer_1-2" data-name="Layer 1">
    <g>
      <rect class="cls-1" x="41.44" y="30.96" width="317.12" height="311.41" rx="72.85" ry="72.85"/>
      <g>
        <path class="cls-2" d="M246.67,106.67c-3.67,0-6.67,3-6.67,6.67v9.2l-29.67,14.87-90.33,45.13v-2.53c0-2.2-1.13-4.33-3-5.53-1.8-1.27-4.2-1.47-6.2-.6l-71.8,29.87c-6.8,2.87-11.4,9.07-12.2,16.27h-13.47c-7.33,0-13.33,6-13.33,13.33v13.33c0,7.33,6,13.33,13.33,13.33h13.47c.8,7.2,5.4,13.4,12.2,16.27l7.67,3.2v80.53c0,7.33,6,13.33,13.33,13.33h33.33c2.47,0,4.73-1.33,5.87-3.53,1.2-2.13,1.07-4.8-.33-6.8l-12.2-18.33v-48.53l24.13,10c.8.33,1.67.53,2.53.53,1.27,0,2.6-.4,3.67-1.13,1.87-1.2,3-3.33,3-5.53v-2.53l90.33,45.13,29.67,14.87v9.2c0,3.67,3,6.67,6.67,6.67s6.67-3,6.67-6.67V113.33c0-3.67-3-6.67-6.67-6.67h0ZM106.67,290l-50.74-21.13-11.8-4.93c-2.53-1.07-4.13-3.47-4.13-6.13v-35.6c0-2.67,1.6-5.07,4.13-6.13l62.53-26.07v100ZM240,342.53l-20-10v-185.07l20-10v205.07Z"/>
        <path class="cls-2" d="M400,73.34c0-40.47-32.87-73.34-73.34-73.34s-73.34,32.87-73.34,73.34,32.87,73.34,73.34,73.34,73.34-32.87,73.34-73.34ZM266.67,73.34c0-33.07,26.93-60,60-60s60,26.93,60,60-26.93,60-60,60-60-26.93-60-60Z"/>
        <path class="cls-2" d="M360,73.34c0-4.73-2.4-9-6.33-11.2l-36-20.6c-3.53-2.07-7.87-2.07-11.4,0-3.87,2.27-6.27,6.53-6.27,11.2v41.2c0,4.67,2.4,8.93,6.27,11.2,1.8,1,3.73,1.53,5.73,1.53s3.87-.53,5.67-1.53l36-20.6c3.93-2.2,6.33-6.47,6.33-11.2Z"/>
        <path class="cls-2" d="M93.33,106.67h57.27l24.67,24.73c1.27,1.27,3,1.93,4.73,1.93.87,0,1.73-.13,2.53-.53,2.53-1,4.13-3.47,4.13-6.13v-20c11,0,20-9,20-20V20C206.67,9,197.67,0,186.67,0h-93.33C82.33,0,73.33,9,73.33,20v66.67c0,11,9,20,20,20h0ZM106.66,33.33h66.67c3.67,0,6.67,3,6.67,6.67s-3,6.67-6.67,6.67h-66.67c-3.67,0-6.67-3-6.67-6.67s3-6.67,6.67-6.67ZM106.66,60h46.67c3.67,0,6.67,3,6.67,6.67s-3,6.67-6.67,6.67h-46.67c-3.67,0-6.67-3-6.67-6.67s3-6.67,6.67-6.67Z"/>
        <path class="cls-2" d="M373.33,180h-66.67c-14.73,0-26.67,11.93-26.67,26.67v66.67c0,14.73,11.93,26.67,26.67,26.67h66.67c14.73,0,26.67-11.93,26.67-26.67v-66.67c0-14.73-11.93-26.67-26.67-26.67ZM340,273.34c-18.4,0-33.33-14.93-33.33-33.33s14.93-33.33,33.33-33.33,33.33,14.93,33.33,33.33-14.93,33.33-33.33,33.33Z"/>
        <path class="cls-2" d="M360,240c0,26.67-40,26.67-40,0s40-26.67,40,0"/>
      </g>
    </g>
  </g>
</svg>