<?xml version="1.0" encoding="UTF-8"?>
<svg id="Layer_2" data-name="Layer 2" xmlns="http://www.w3.org/2000/svg" viewBox="0 0 400 311.41">
  <defs>
    <style>
      .cls-1 {
        fill: #ffe7bb;
      }

      .cls-1, .cls-2 {
        stroke-width: 0px;
      }

      .cls-2 {
        fill: #3f2b00;
      }
    </style>
  </defs>
  <g id="Layer_1-2" data-name="Layer 1">
    <g>
      <rect class="cls-1" x="41.44" width="317.12" height="311.41" rx="72.85" ry="72.85"/>
      <g>
        <path class="cls-2" d="M137.82,100.91c16.44-3.79,32.45,0,44.25,8.01V24.21c0-2.53,0-4.64-.42-6.74h0c-1.26-7.59-7.59-12.64-14.75-12.64h-32.03c-7.59,0-13.91,5.48-14.75,12.64l-3.79,27.39c-8.43,3.37-10.54,4.21-18.97,8.01l-22.34-16.86c-5.9-4.21-14.33-3.79-19.39,1.26l-22.76,22.76c-5.48,5.48-5.9,13.49-1.26,19.39l16.86,22.34c-3.37,8.43-4.21,10.54-8.01,18.97l-27.82,3.79c-7.16,1.26-12.64,7.59-12.64,14.75v32.03c0,7.59,5.48,13.91,12.64,14.75l27.39,3.79c3.37,8.43,4.21,10.54,8.01,18.97l-16.86,23.18c-4.64,5.9-3.79,14.33,1.26,19.39l22.76,22.76c5.06,5.06,13.49,5.9,19.39,1.26l22.34-16.86c8.43,3.37,10.54,4.21,18.97,8.01l3.79,27.39c1.26,7.16,7.59,12.64,14.75,12.64h32.03c7.59,0,13.91-5.48,14.75-12.64h0c.42-2.11.42-4.64.42-6.74v-84.71c-8.85,5.9-19.81,9.69-31.19,9.69-34.14,0-61.53-30.77-55.21-66.17,4.21-21.92,21.07-40.04,42.57-45.1Z"/>
        <g>
          <path class="cls-2" d="M381,92.06c9.27,1.69,16.44,9.27,18.54,18.54,2.95,15.17-8.85,28.66-23.18,28.66-10.12,0-18.54-6.32-21.92-14.75h-50.58l-18.97,30.77,19.39,32.03h50.15c3.37-8.85,11.8-14.75,21.92-14.75,13.07,0,23.6,10.54,23.6,23.6s-10.54,23.6-23.6,23.6c-10.12,0-18.54-5.9-21.92-14.75h-55.63c-2.95,0-5.9-1.69-7.59-4.21l-22.34-36.67h-106.63c-5.06,0-8.85-4.21-8.85-8.85h0c0-5.06,4.21-8.85,8.85-8.85h107.05l21.92-35.4c1.69-2.53,4.64-4.21,7.59-4.21h55.63c3.79-10.54,14.75-17.28,26.55-14.75Z"/>
          <g>
            <path class="cls-2" d="M308.09,34.75c14.75,0,26.55,13.49,23.18,29.08-1.69,8.85-9.27,16.02-18.12,18.12-11.8,2.53-23.18-4.21-26.97-14.33h-22.76l-21.92,35.4c-1.69,2.53-4.64,4.21-7.59,4.21h-32.87v-18.12h27.82l21.92-35.4c1.69-2.53,4.64-4.21,7.59-4.21h27.82c3.37-8.43,12.22-14.75,21.92-14.75Z"/>
            <path class="cls-2" d="M200.62,203.75h32.87c2.95,0,5.9,1.69,7.59,4.21l21.92,35.4h22.76c4.21-10.12,15.17-16.86,26.97-14.33,8.85,1.69,16.02,9.27,18.12,18.12,3.37,15.59-8.43,29.08-23.18,29.08-9.69,0-18.12-6.32-21.92-14.75h-27.82c-2.95,0-5.9-1.69-7.59-4.21l-21.92-35.4h-27.82v-18.12h0Z"/>
          </g>
        </g>
      </g>
    </g>
  </g>
</svg>