<?xml version="1.0" encoding="UTF-8"?>
<svg id="Layer_2" data-name="Layer 2" xmlns="http://www.w3.org/2000/svg" viewBox="0 0 124.4 55.34">
  <defs>
    <style>
      .cls-1 {
        fill: #777677;
      }

      .cls-1, .cls-2, .cls-3, .cls-4, .cls-5, .cls-6 {
        stroke-width: 0px;
      }

      .cls-2 {
        fill: #00ab4e;
      }

      .cls-3 {
        fill: none;
      }

      .cls-4 {
        fill: #487cbe;
      }

      .cls-5 {
        fill: #fcb514;
      }

      .cls-6 {
        fill: #ee372c;
      }
    </style>
  </defs>
  <g id="Layer_1-2" data-name="Layer 1">
    <g>
      <g>
        <path class="cls-1" d="M29.25,39.04v9h-2.85v-22.22h7.57c1.92,0,3.56.64,4.9,1.92,1.37,1.28,2.05,2.84,2.05,4.69s-.68,3.46-2.05,4.72c-1.32,1.26-2.96,1.89-4.9,1.89h-4.72ZM29.25,28.55v7.76h4.78c1.14,0,2.08-.38,2.82-1.15.77-.77,1.15-1.68,1.15-2.73s-.38-1.93-1.15-2.7c-.74-.79-1.69-1.18-2.82-1.18h-4.78Z"/>
        <path class="cls-1" d="M48.56,32.34c2.11,0,3.78.56,5,1.69,1.22,1.13,1.83,2.67,1.83,4.64v9.37h-2.73v-2.11h-.12c-1.18,1.74-2.75,2.61-4.72,2.61-1.68,0-3.08-.5-4.2-1.49-1.13-.99-1.69-2.23-1.69-3.72,0-1.57.59-2.82,1.78-3.75,1.19-.93,2.78-1.4,4.76-1.4,1.7,0,3.09.31,4.19.93v-.65c0-.99-.39-1.84-1.18-2.53-.79-.69-1.71-1.04-2.76-1.04-1.59,0-2.85.67-3.79,2.02l-2.51-1.58c1.39-1.99,3.43-2.98,6.14-2.98ZM44.86,43.39c0,.74.32,1.37.95,1.86.63.5,1.37.74,2.22.74,1.2,0,2.27-.44,3.21-1.33.94-.89,1.41-1.93,1.41-3.13-.89-.7-2.13-1.06-3.72-1.06-1.16,0-2.13.28-2.9.84-.78.56-1.16,1.25-1.16,2.08Z"/>
        <path class="cls-1" d="M58.61,32.84h2.73v2.48h.12c.85-1.94,2.6-2.92,5.24-2.92l.59.06v2.98l-1.27-.12c-1.32,0-2.42.41-3.27,1.23-.86.82-1.29,1.86-1.29,3.12v8.38h-2.85v-15.21ZM76.42,48.29c-1.24,0-2.27-.38-3.09-1.15-.82-.77-1.24-1.83-1.26-3.2v-8.5h-2.67v-2.61h2.67v-4.65h2.85v4.65h3.72v2.61h-3.72v7.57c0,1.01.2,1.7.59,2.06.39.36.84.54,1.33.54.23,0,.45-.03.67-.08.22-.05.42-.12.61-.2l.9,2.54c-.74.27-1.61.4-2.61.4Z"/>
        <path class="cls-1" d="M81.54,32.84h2.73v2.11h.12c.43-.74,1.1-1.37,2-1.86.9-.5,1.84-.74,2.81-.74,1.86,0,3.29.53,4.3,1.6,1,1.07,1.51,2.58,1.51,4.55v9.56h-2.85v-9.37c-.06-2.48-1.31-3.72-3.75-3.72-1.14,0-2.09.46-2.85,1.38-.77.92-1.15,2.02-1.15,3.3v8.41h-2.85v-15.21Z"/>
        <path class="cls-1" d="M105.19,48.54c-2.23,0-4.08-.77-5.52-2.3-1.45-1.53-2.17-3.46-2.17-5.8s.7-4.25,2.11-5.79c1.41-1.54,3.21-2.31,5.4-2.31s4.05.73,5.38,2.19c1.33,1.46,2,3.5,2,6.13l-.03.31h-11.95c.04,1.49.54,2.69,1.49,3.6.95.91,2.09,1.37,3.41,1.37,1.82,0,3.25-.91,4.28-2.73l2.54,1.24c-.68,1.28-1.63,2.29-2.84,3.01s-2.58,1.09-4.11,1.09ZM100.63,38.61h8.72c-.08-1.06-.51-1.93-1.29-2.62-.78-.69-1.82-1.04-3.12-1.04-1.08,0-2,.33-2.78.99-.78.66-1.29,1.55-1.54,2.67Z"/>
        <path class="cls-1" d="M117.85,48.04h-2.85v-15.21h2.73v2.48h.12c.29-.81.88-1.49,1.78-2.06.9-.57,1.78-.85,2.65-.85s1.53.12,2.11.37l-.87,2.76c-.35-.14-.91-.22-1.68-.22-1.08,0-2.01.43-2.81,1.3-.8.87-1.19,1.88-1.19,3.04v8.38Z"/>
      </g>
      <path class="cls-3" d="M44.78,13.24c-.73,0-1.34.27-1.83.8-.5.51-.74,1.17-.74,1.97s.25,1.44.74,1.97c.5.53,1.11.8,1.83.8s1.32-.27,1.82-.8c.51-.54.76-1.2.76-1.97s-.25-1.47-.74-1.97c-.5-.53-1.11-.8-1.83-.8Z"/>
      <path class="cls-3" d="M64.75,13.24c-.69,0-1.29.27-1.8.81-.5.53-.74,1.19-.74,1.97s.24,1.43.73,1.96c.5.53,1.1.8,1.82.8s1.26-.26,1.73-.78c.47-.54.71-1.2.71-1.97s-.24-1.45-.71-1.99c-.46-.53-1.04-.8-1.73-.8Z"/>
      <path class="cls-3" d="M54.78,13.24c-.73,0-1.34.27-1.83.8-.5.51-.74,1.17-.74,1.97s.25,1.44.74,1.97c.5.53,1.11.8,1.83.8s1.32-.27,1.82-.8c.51-.54.76-1.2.76-1.97s-.25-1.47-.74-1.97c-.5-.53-1.11-.8-1.83-.8Z"/>
      <path class="cls-3" d="M78.75,13.47c-.31-.18-.66-.27-1.06-.27-.62,0-1.19.25-1.7.76-.48.5-.72,1.13-.69,1.9l4.08-1.7c-.12-.29-.33-.52-.64-.7Z"/>
      <path class="cls-4" d="M32.87,12.84v1.94h4.64c-.15,1.22-.66,2.17-1.52,2.86-.84.67-1.88,1-3.12,1-1.43,0-2.64-.5-3.62-1.51-.98-.99-1.47-2.21-1.47-3.65s.49-2.66,1.47-3.65c.98-1,2.19-1.51,3.62-1.51,1.34,0,2.5.46,3.5,1.38l1.37-1.37c-1.37-1.3-2.99-1.96-4.86-1.96-1.27,0-2.47.32-3.6.97-1.12.63-2,1.51-2.65,2.61-.63,1.08-.95,2.26-.95,3.51s.32,2.45.95,3.53c.63,1.1,1.52,1.96,2.65,2.6,1.13.65,2.33.97,3.6.97,1.92,0,3.5-.6,4.76-1.8,1.25-1.19,1.87-2.76,1.87-4.72,0-.46-.03-.87-.1-1.21h-6.52Z"/>
      <path class="cls-6" d="M44.78,11.44c-1.3,0-2.39.44-3.27,1.32-.88.87-1.32,1.95-1.32,3.25s.44,2.37,1.33,3.25c.88.88,1.96,1.32,3.25,1.32s2.38-.44,3.25-1.32c.89-.89,1.33-1.97,1.33-3.25s-.44-2.39-1.33-3.25c-.88-.88-1.96-1.32-3.25-1.32ZM46.59,17.98c-.5.53-1.1.8-1.82.8s-1.34-.27-1.83-.8c-.5-.53-.74-1.19-.74-1.97s.25-1.47.74-1.97c.5-.53,1.11-.8,1.83-.8s1.34.27,1.83.8c.5.51.74,1.17.74,1.97s-.25,1.43-.76,1.97Z"/>
      <rect class="cls-2" x="70.34" y="6.87" width="2.01" height="13.43"/>
      <path class="cls-5" d="M54.78,11.44c-1.3,0-2.39.44-3.27,1.32-.88.87-1.32,1.95-1.32,3.25s.44,2.37,1.33,3.25c.88.88,1.96,1.32,3.25,1.32s2.38-.44,3.25-1.32c.89-.89,1.33-1.97,1.33-3.25s-.44-2.39-1.33-3.25c-.88-.88-1.96-1.32-3.25-1.32ZM56.6,17.98c-.5.53-1.1.8-1.82.8s-1.34-.27-1.83-.8c-.5-.53-.74-1.19-.74-1.97s.25-1.47.74-1.97c.5-.53,1.11-.8,1.83-.8s1.34.27,1.83.8c.5.51.74,1.17.74,1.97s-.25,1.43-.76,1.97Z"/>
      <path class="cls-6" d="M77.85,18.77c-1,0-1.74-.46-2.22-1.38l6.11-2.53-.21-.52c-.16-.43-.37-.82-.63-1.18-.26-.36-.56-.67-.89-.93-.33-.26-.7-.46-1.11-.6-.4-.14-.83-.21-1.28-.21-1.22,0-2.25.43-3.08,1.3-.82.88-1.23,1.97-1.23,3.27s.43,2.38,1.3,3.25c.87.88,1.94,1.32,3.24,1.32,1.62,0,2.88-.68,3.81-2.03l-1.56-1.04c-.57.84-1.32,1.26-2.25,1.26ZM76,13.96c.51-.51,1.07-.76,1.7-.76.39,0,.74.09,1.06.27.31.18.52.41.64.7l-4.08,1.7c-.02-.77.21-1.41.69-1.9Z"/>
      <path class="cls-4" d="M67.05,12.46h-.07c-.58-.68-1.38-1.02-2.41-1.02-1.18,0-2.2.45-3.08,1.35-.87.9-1.3,1.98-1.3,3.24s.43,2.32,1.3,3.22c.89.89,1.92,1.33,3.08,1.33,1.03,0,1.83-.35,2.41-1.04h.07v.47c0,1.92-.81,2.87-2.44,2.87-.52,0-.98-.15-1.38-.45-.4-.3-.71-.69-.92-1.18l-1.75.73c.17.4.39.77.66,1.1.27.33.57.61.93.85.35.24.74.42,1.15.55.42.13.85.2,1.32.2,1.36,0,2.43-.41,3.19-1.24.77-.82,1.15-2,1.15-3.52v-8.2h-1.9v.74ZM66.48,18c-.47.52-1.05.78-1.73.78-.72,0-1.32-.27-1.82-.8-.48-.53-.73-1.18-.73-1.96s.25-1.44.74-1.97c.51-.54,1.11-.81,1.8-.81s1.27.27,1.73.8c.47.54.71,1.21.71,1.99s-.24,1.43-.71,1.97Z"/>
      <rect class="cls-4" width="14.56" height="55.34"/>
    </g>
  </g>
</svg>