<?xml version="1.0" encoding="UTF-8"?>
<svg id="Layer_2" data-name="Layer 2" xmlns="http://www.w3.org/2000/svg" viewBox="0 0 149.49 60.56">
  <defs>
    <style>
      .cls-1 {
        fill: #f8761f;
      }

      .cls-1, .cls-2 {
        stroke-width: 0px;
      }

      .cls-2 {
        fill: #45535e;
      }
    </style>
  </defs>
  <g id="Layer_1-2" data-name="Layer 1">
    <g>
      <g>
        <path class="cls-2" d="M0,8.08h5.21v11.58h10.99v-11.58h5.22v28.43h-5.22v-11.82H5.21v11.82H0V8.08h0Z"/>
        <path class="cls-2" d="M37.94,27.25c0,2.38-1.94,4.32-4.32,4.32s-4.32-1.94-4.32-4.32v-12.24h-4.94v12.24c0,5.11,4.15,9.26,9.26,9.26s9.26-4.15,9.26-9.26v-12.24h-4.94v12.24"/>
        <path class="cls-2" d="M56.68,15.15c-2.45,0-4.16.71-5.82,2.33v-9.41h-4.96v17.43c0,6.53,4.72,10.99,10.02,10.99,5.89,0,11.06-4.55,11.06-10.68s-4.76-10.68-10.3-10.68h0ZM56.8,31.92c-3.36,0-5.93-2.81-5.93-6.09s2.57-6.09,5.93-6.09c2.85,0,5.42,2.81,5.42,6.09s-2.57,6.09-5.42,6.09h0Z"/>
        <path class="cls-2" d="M75.31,16.4c0-2.49,1.66-3.28,3.48-3.28,1.46,0,3.4,1.11,4.67,2.45l3.24-3.8c-1.62-2.17-4.9-3.68-7.59-3.68-5.38,0-9.25,3.12-9.25,8.31,0,9.61,11.82,6.56,11.82,11.94,0,1.66-1.62,3.12-3.48,3.12-2.93,0-3.88-1.42-5.22-2.93l-3.6,3.72c2.3,2.81,5.14,4.23,8.54,4.23,5.1,0,9.21-3.16,9.21-8.11,0-10.68-11.82-7.35-11.82-11.98"/>
        <path class="cls-2" d="M100.19,14.88c-5.3,0-10.02,4.47-10.02,10.99v17.48h4.96v-9.45c1.65,1.62,3.36,2.33,5.82,2.33,5.54,0,10.3-4.63,10.3-10.68s-5.16-10.68-11.06-10.68h0ZM101.07,31.64c-3.36,0-5.93-2.81-5.93-6.09s2.57-6.09,5.93-6.09c2.85,0,5.42,2.81,5.42,6.09s-2.57,6.09-5.42,6.09h0Z"/>
        <path class="cls-2" d="M147.75,31.92c-2.93,0-3.76-1.26-3.76-3.2v-8.58h4.55v-4.35h-4.55v-5.73l-5.02,2.25v17.48c0,4.47,3.08,6.72,7.31,6.72.63,0,1.5-.04,1.98-.16l1.23-4.51c-.55.04-1.19.08-1.74.08"/>
        <path class="cls-1" d="M134.67,20.39c-.95-1.64-2.29-2.95-3.96-3.93-1.25-.73-2.54-1.19-4-1.39v-5.2c1.46-.62,2.37-1.99,2.37-3.59,0-2.18-1.75-3.95-3.93-3.95s-3.96,1.77-3.96,3.95c0,1.6.85,2.97,2.31,3.59v5.2c-1.17.17-2.38.53-3.49,1.09-2.26-1.72-9.67-7.34-14-10.63.1-.37.18-.75.18-1.16,0-2.42-1.96-4.38-4.37-4.38s-4.37,1.96-4.37,4.38,1.96,4.38,4.38,4.38c.82,0,1.59-.24,2.25-.64l.91.69,12.57,9.05c-.66.61-1.28,1.3-1.78,2.08-1,1.59-1.62,3.33-1.62,5.24v.4c0,1.34.25,2.6.69,3.79.38,1.04.94,1.98,1.63,2.83l-4.17,4.18c-.37-.14-.76-.21-1.16-.21-.9,0-1.75.35-2.39.99-.64.64-.99,1.49-.99,2.39,0,.9.35,1.75.99,2.39.64.64,1.49.99,2.39.99s1.75-.35,2.39-.99c.64-.64.99-1.49.99-2.39,0-.35-.05-.69-.16-1.01l4.31-4.31c.59.41,1.23.75,1.92,1.05,1.35.59,2.85.94,4.48.94h.3c1.81,0,3.51-.42,5.11-1.29,1.69-.92,3.01-2.17,4.01-3.77,1-1.61,1.56-3.38,1.56-5.33v-.1c0-1.92-.44-3.69-1.38-5.32h0ZM129.4,29.43c-1.17,1.3-2.51,2.1-4.04,2.1h-.25c-.87,0-1.72-.24-2.55-.68-.94-.48-1.65-1.17-2.23-2.03-.6-.85-.93-1.78-.93-2.77v-.3c0-.97.19-1.89.65-2.76.5-.95,1.18-1.69,2.08-2.27.88-.58,1.83-.87,2.88-.87h.1c.95,0,1.86.19,2.71.62.87.46,1.58,1.1,2.13,1.94.53.84.85,1.74.95,2.72.02.2.02.41.02.61,0,1.33-.51,2.57-1.53,3.69h0Z"/>
      </g>
      <g>
        <path class="cls-2" d="M39.87,60.56v-10.05h3.58c.78,0,1.43.14,1.94.43.51.28.9.67,1.15,1.17.26.49.38,1.05.38,1.66s-.13,1.17-.39,1.67-.64.88-1.16,1.17c-.52.29-1.16.43-1.94.43h-2.46v-1.29h2.33c.49,0,.89-.09,1.2-.26.31-.17.53-.41.68-.7.14-.3.22-.64.22-1.02s-.07-.72-.22-1.01c-.14-.29-.37-.52-.68-.69s-.72-.25-1.22-.25h-1.9v8.75h-1.52Z"/>
        <path class="cls-2" d="M49.86,60.56h-1.61l3.62-10.05h1.75l3.62,10.05h-1.61l-2.84-8.23h-.08l-2.85,8.23ZM50.13,56.62h5.22v1.28h-5.22v-1.28Z"/>
        <path class="cls-2" d="M60.07,60.56v-10.05h3.58c.78,0,1.43.13,1.94.4.52.27.9.64,1.16,1.11.26.47.38,1.02.38,1.64s-.13,1.16-.39,1.62-.64.83-1.16,1.09c-.52.26-1.16.39-1.94.39h-2.71v-1.31h2.58c.49,0,.89-.07,1.2-.21.31-.14.54-.35.68-.61.14-.27.22-.59.22-.97s-.07-.71-.22-.99c-.15-.28-.37-.49-.68-.64-.31-.15-.71-.22-1.22-.22h-1.9v8.75h-1.52ZM65.04,56.02l2.48,4.54h-1.73l-2.43-4.54h1.68Z"/>
        <path class="cls-2" d="M69.87,51.81v-1.31h7.78v1.31h-3.14v8.75h-1.51v-8.75h-3.13Z"/>
        <path class="cls-2" d="M88.87,50.5v10.05h-1.39l-5.11-7.37h-.09v7.37h-1.52v-10.05h1.4l5.12,7.38h.09v-7.38h1.5Z"/>
        <path class="cls-2" d="M92.46,60.56v-10.05h6.3v1.31h-4.79v3.06h4.46v1.3h-4.46v3.08h4.84v1.31h-6.36Z"/>
        <path class="cls-2" d="M102.17,60.56v-10.05h3.58c.78,0,1.43.13,1.94.4.52.27.9.64,1.16,1.11.25.47.38,1.02.38,1.64s-.13,1.16-.39,1.62-.64.83-1.16,1.09c-.52.26-1.16.39-1.94.39h-2.71v-1.31h2.58c.49,0,.89-.07,1.2-.21.31-.14.54-.35.68-.61s.22-.59.22-.97-.07-.71-.22-.99c-.15-.28-.37-.49-.68-.64-.31-.15-.71-.22-1.21-.22h-1.9v8.75h-1.52ZM107.14,56.02l2.48,4.54h-1.73l-2.43-4.54h1.68Z"/>
      </g>
    </g>
  </g>
</svg>