<?xml version="1.0" encoding="UTF-8"?>
<svg id="Layer_2" data-name="Layer 2" xmlns="http://www.w3.org/2000/svg" viewBox="0 0 400 373.34">
  <defs>
    <style>
      .cls-1 {
        fill: #ffe7bb;
      }

      .cls-1, .cls-2 {
        stroke-width: 0px;
      }

      .cls-2 {
        fill: #3f2b00;
      }
    </style>
  </defs>
  <g id="Layer_1-2" data-name="Layer 1">
    <g>
      <rect class="cls-1" x="41.44" y="30.96" width="317.12" height="311.41" rx="72.85" ry="72.85"/>
      <g>
        <path class="cls-2" d="M373.33,0H26.67C11.93,0,0,11.93,0,26.67v280c0,14.73,11.93,26.67,26.67,26.67h113.33c3.67,0,6.67-3,6.67-6.67s-3-6.67-6.67-6.67H26.67c-7.33,0-13.33-6-13.33-13.33V53.33h373.33v253.33c0,7.33-6,13.33-13.33,13.33h-113.33c-3.67,0-6.67,3-6.67,6.67s3,6.67,6.67,6.67h113.33c14.73,0,26.67-11.93,26.67-26.67V26.67c0-14.73-11.93-26.67-26.67-26.67ZM313.34,33.33c-3.67,0-6.67-3-6.67-6.67s3-6.67,6.67-6.67,6.67,3,6.67,6.67-3,6.67-6.67,6.67ZM340,33.33c-3.67,0-6.67-3-6.67-6.67s3-6.67,6.67-6.67,6.67,3,6.67,6.67-3,6.67-6.67,6.67ZM366.67,33.33c-3.67,0-6.67-3-6.67-6.67s3-6.67,6.67-6.67,6.67,3,6.67,6.67-3,6.67-6.67,6.67Z"/>
        <path class="cls-2" d="M253.33,265.8l29.67,19.73c1.07.73,2.4,1.13,3.67,1.13,1.07,0,2.13-.27,3.13-.8,2.2-1.13,3.53-3.4,3.53-5.87,0-42.93-30.93-74.67-40-83v-17c0-62.73-47.47-97.33-49.47-98.73-2.33-1.67-5.4-1.67-7.73,0-2,1.4-49.47,36-49.47,98.73v17c-9.07,8.33-40,40.07-40,83,0,2.47,1.33,4.73,3.53,5.87,1,.53,2.07.8,3.13.8,1.27,0,2.6-.4,3.67-1.13l29.67-19.73v7.53c0,3.67,3,6.67,6.67,6.67h93.33c3.67,0,6.67-3,6.67-6.67v-7.53ZM240,266.67h-80v-86.66c0-45.73,29.27-75.4,40-84.73,10.73,9.27,40,38.87,40,84.73v86.66Z"/>
        <path class="cls-2" d="M226.67,166.67c0,14.73-11.93,26.67-26.67,26.67s-26.67-11.93-26.67-26.67,11.93-26.67,26.67-26.67,26.67,11.93,26.67,26.67"/>
        <path class="cls-2" d="M200,293.34c-18.4,0-33.33,14.93-33.33,33.33,0,22.67,26.33,43.07,29.33,45.33,1.2.87,2.6,1.33,4,1.33s2.8-.47,4-1.33c3-2.27,29.33-22.67,29.33-45.33,0-18.4-14.93-33.33-33.33-33.33Z"/>
      </g>
    </g>
  </g>
</svg>