<?xml version="1.0" encoding="UTF-8"?>
<svg id="Layer_2" data-name="Layer 2" xmlns="http://www.w3.org/2000/svg" viewBox="0 0 333.33 400">
  <defs>
    <style>
      .cls-1 {
        fill: #ffe7bb;
      }

      .cls-1, .cls-2 {
        stroke-width: 0px;
      }

      .cls-2 {
        fill: #3f2b00;
      }
    </style>
  </defs>
  <g id="Layer_1-2" data-name="Layer 1">
    <g>
      <rect class="cls-1" x="8.11" y="44.3" width="317.12" height="311.41" rx="72.85" ry="72.85"/>
      <g>
        <path class="cls-2" d="M286.67,160h-53.33c-3.67,0-6.67,3-6.67,6.67v106.67c0,33.07-26.93,60-60,60s-60-26.93-60-60v-106.67c0-3.67-3-6.67-6.67-6.67h-53.33c-3.67,0-6.67,3-6.67,6.67v106.67c0,69.87,56.8,126.67,126.67,126.67s126.67-56.8,126.67-126.67v-106.67c0-3.67-3-6.67-6.67-6.67h0ZM93.34,200h-40v-26.67h40v26.67ZM280,200h-40v-26.67h40v26.67Z"/>
        <path class="cls-2" d="M260,0C219.54,0,186.67,32.87,186.67,73.34c0,18.33,6.8,35.13,18,48,.13.13.2.27.33.4h.07c13.47,15.2,33.07,24.87,54.93,24.87s41.47-9.67,54.93-24.87h.07c.13-.13.2-.27.33-.4,11.2-12.87,18-29.67,18-48,0-40.47-32.87-73.34-73.34-73.34h0ZM310,106.4c-13.53-12.6-31.33-19.73-50-19.73s-36.47,7.13-50,19.73c-6.33-9.47-10-20.87-10-33.07,0-33.07,26.93-60,60-60s60,26.93,60,60c0,12.2-3.67,23.6-10,33.07h0Z"/>
        <path class="cls-2" d="M286.67,53.33c0,14.73-11.93,26.67-26.67,26.67s-26.67-11.93-26.67-26.67,11.93-26.67,26.67-26.67,26.67,11.93,26.67,26.67"/>
        <path class="cls-2" d="M128.27,121.8h.07c.13-.13.2-.27.33-.4,11.2-12.87,18-29.67,18-48C146.67,32.93,113.8.07,73.34.07S0,32.86,0,73.33c0,18.33,6.8,35.13,18,48,.13.13.2.27.33.4h.07c13.47,15.2,33.07,24.87,54.93,24.87s41.47-9.67,54.93-24.87v.07ZM23.34,106.4c-6.33-9.47-10-20.87-10-33.07,0-33.07,26.93-60,60-60s60,26.93,60,60c0,12.2-3.67,23.6-10,33.07-13.53-12.6-31.33-19.73-50-19.73s-36.47,7.13-50,19.73h0Z"/>
        <path class="cls-2" d="M100,53.33c0,14.73-11.93,26.67-26.67,26.67s-26.67-11.93-26.67-26.67,11.93-26.67,26.67-26.67,26.67,11.93,26.67,26.67"/>
        <path class="cls-2" d="M140.81,189.8c1.13,2.2,3.4,3.53,5.87,3.53h27.53l-19.73,29.67c-2.07,3.07-1.2,7.2,1.87,9.27,1.13.73,2.4,1.13,3.67,1.13,2.13,0,4.27-1.07,5.53-3l26.67-40c1.33-2.07,1.47-4.67.33-6.87-1.13-2.2-3.4-3.53-5.87-3.53h-27.53l19.73-29.67c2.07-3.07,1.2-7.2-1.87-9.27-3.07-2.07-7.2-1.2-9.27,1.87l-26.67,40c-1.33,2.07-1.47,4.67-.33,6.87h.07Z"/>
      </g>
    </g>
  </g>
</svg>