<?xml version="1.0" encoding="UTF-8"?>
<svg id="Layer_2" data-name="Layer 2" xmlns="http://www.w3.org/2000/svg" viewBox="0 0 166.25 44.77">
  <defs>
    <style>
      .cls-1 {
        fill: #ff004f;
      }

      .cls-1, .cls-2, .cls-3 {
        stroke-width: 0px;
      }

      .cls-3 {
        fill: #00f2ea;
      }
    </style>
  </defs>
  <g id="Layer_1-2" data-name="Layer 1">
    <g>
      <g>
        <path class="cls-1" d="M31.53,16.16c3.1,2.07,6.91,3.28,11.01,3.28v-7.36c-.78,0-1.55-.08-2.31-.23v5.79c-4.11,0-7.91-1.22-11.01-3.28v15.01c0,7.51-6.54,13.6-14.61,13.6-3.01,0-5.81-.85-8.13-2.3,2.65,2.52,6.35,4.09,10.45,4.09,8.07,0,14.61-6.09,14.61-13.6v-15.01h0ZM34.38,8.74c-1.59-1.61-2.63-3.7-2.85-6v-.95h-2.19c.55,2.93,2.43,5.43,5.05,6.95h0ZM11.58,34.92c-.89-1.08-1.37-2.4-1.36-3.77,0-3.43,2.99-6.22,6.68-6.22.69,0,1.37.1,2.03.29v-7.52c-.77-.1-1.54-.14-2.31-.12v5.85c-.66-.19-1.34-.29-2.03-.29-3.69,0-6.68,2.78-6.68,6.22,0,2.43,1.5,4.53,3.68,5.56Z"/>
        <path class="cls-2" d="M29.22,14.37c3.1,2.07,6.91,3.28,11.01,3.28v-5.79c-2.29-.45-4.32-1.57-5.85-3.12-2.61-1.52-4.49-4.02-5.05-6.95h-5.76v29.38c-.01,3.43-3,6.2-6.68,6.2-2.17,0-4.1-.96-5.32-2.45-2.18-1.02-3.68-3.13-3.68-5.56,0-3.43,2.99-6.22,6.68-6.22.71,0,1.39.1,2.03.29v-5.85c-7.93.15-14.3,6.18-14.3,13.59,0,3.7,1.59,7.06,4.16,9.51,2.32,1.45,5.12,2.3,8.13,2.3,8.07,0,14.61-6.09,14.61-13.6v-15.01h0Z"/>
        <path class="cls-3" d="M40.23,11.86v-1.57c-2.07,0-4.09-.54-5.85-1.55,1.55,1.58,3.6,2.67,5.85,3.12ZM29.34,1.79c-.05-.28-.09-.56-.12-.84v-.95h-7.95v29.38c-.01,3.42-3,6.2-6.68,6.2-1.08,0-2.1-.24-3.01-.66,1.22,1.49,3.15,2.45,5.32,2.45,3.68,0,6.67-2.77,6.68-6.2V1.79h5.76ZM16.61,17.58v-1.67c-.66-.08-1.33-.13-2-.13-8.07,0-14.61,6.09-14.61,13.6,0,4.71,2.57,8.86,6.48,11.3-2.58-2.45-4.16-5.81-4.16-9.51,0-7.41,6.37-13.44,14.3-13.59Z"/>
      </g>
      <g>
        <path class="cls-1" d="M101.9,22.04c4.04,0,7.31-3.25,7.31-7.25s-3.27-7.26-7.31-7.26h-1.1c4.04,0,7.31,3.25,7.31,7.26s-3.27,7.25-7.31,7.25h1.1Z"/>
        <path class="cls-3" d="M100.7,7.53h-1.1c-4.04,0-7.31,3.25-7.31,7.26s3.28,7.25,7.31,7.25h1.1c-4.04,0-7.31-3.25-7.31-7.25,0-4.01,3.27-7.26,7.31-7.26Z"/>
        <path class="cls-2" d="M45.1,4.25v3.68h4.31v14.01h4.31v-13.91h3.51l1.2-3.78h-13.33ZM80.36,4.25v3.68h4.31v14.01h4.31v-13.91h3.51l1.2-3.78h-13.32ZM59.23,6.34c0-1.15.94-2.09,2.1-2.09s2.1.93,2.1,2.09-.94,2.09-2.1,2.09c-1.16,0-2.1-.93-2.1-2.09ZM59.23,9.92h4.21v12.02h-4.21v-12.02ZM65.24,4.25v17.69h4.21v-4.57l1.3-1.19,4.11,5.86h4.51l-5.91-8.55,5.31-5.17h-5.11l-4.21,4.17V4.25h-4.21ZM110.62,4.25v17.69h4.21v-4.57l1.3-1.19,4.11,5.86h4.51l-5.91-8.55,5.31-5.17h-5.11l-4.21,4.17V4.25h-4.21Z"/>
        <path class="cls-2" d="M100.8,22.04c4.04,0,7.31-3.25,7.31-7.25s-3.28-7.26-7.31-7.26h-.1c-4.04,0-7.31,3.25-7.31,7.26s3.27,7.25,7.31,7.25h.1ZM97.2,14.79c0-1.95,1.59-3.53,3.56-3.53s3.56,1.58,3.56,3.53-1.59,3.53-3.56,3.53c-1.96,0-3.56-1.58-3.56-3.53Z"/>
      </g>
      <g>
        <path class="cls-2" d="M47.48,26.8h2.11l2.83,6.91h.11l2.83-6.91h2.11v9.53h-1.66v-6.55h-.09l-2.63,6.52h-1.24l-2.63-6.53h-.09v6.56h-1.66v-9.53Z"/>
        <path class="cls-2" d="M61.67,36.47c-.45,0-.86-.08-1.22-.24-.36-.16-.65-.4-.86-.72-.21-.32-.31-.71-.31-1.18,0-.4.07-.74.22-1s.35-.47.61-.63c.26-.16.55-.28.87-.36s.66-.14,1.01-.18c.42-.04.76-.08,1.02-.12.26-.04.45-.09.57-.17.12-.08.18-.19.18-.36v-.03c0-.35-.1-.62-.31-.81s-.51-.29-.9-.29c-.41,0-.74.09-.98.27-.24.18-.4.39-.49.64l-1.57-.22c.12-.43.33-.8.61-1.09.29-.29.63-.51,1.05-.66s.87-.22,1.37-.22c.34,0,.69.04,1.03.12.34.08.65.21.94.4.28.18.51.43.68.75.17.32.26.71.26,1.19v4.78h-1.62v-.98h-.06c-.1.2-.25.38-.43.56s-.42.31-.69.41c-.28.1-.6.16-.98.16ZM62.11,35.24c.34,0,.63-.07.88-.2.25-.13.44-.31.57-.54.14-.22.2-.47.2-.73v-.84c-.05.04-.14.08-.27.12s-.27.07-.42.1c-.15.03-.31.05-.46.08-.15.02-.28.04-.4.06-.25.03-.48.09-.68.17-.2.08-.35.19-.47.32-.11.14-.17.32-.17.53,0,.31.11.54.34.7s.52.24.87.24Z"/>
        <path class="cls-2" d="M67.47,36.33v-7.15h1.63v1.19h.07c.13-.41.35-.73.67-.96.32-.22.68-.34,1.09-.34.09,0,.2,0,.31.01s.21.02.29.04v1.55c-.07-.03-.18-.05-.34-.07-.15-.02-.3-.03-.44-.03-.31,0-.58.07-.83.2s-.44.31-.57.55-.21.5-.21.81v4.2h-1.68Z"/>
        <path class="cls-2" d="M73,36.33v-9.53h1.68v9.53h-1.68ZM74.53,34.09v-2.03s.27,0,.27,0l2.57-2.87h1.97l-3.16,3.52h-.35l-1.29,1.39ZM77.48,36.33l-2.33-3.25,1.14-1.19,3.21,4.44h-2.01Z"/>
        <path class="cls-2" d="M83.65,36.47c-.72,0-1.33-.15-1.85-.45-.52-.3-.92-.72-1.2-1.28s-.42-1.2-.42-1.95.14-1.38.42-1.94c.28-.56.67-.99,1.18-1.3.51-.31,1.1-.47,1.78-.47.44,0,.86.07,1.25.21.39.14.74.36,1.04.65s.54.67.71,1.12c.17.45.26,1,.26,1.62v.52h-5.86v-1.14h4.24c0-.32-.07-.61-.21-.86s-.33-.45-.57-.6c-.24-.15-.53-.22-.85-.22-.34,0-.65.08-.91.25s-.46.38-.61.65c-.14.27-.22.56-.22.88v.99c0,.42.08.77.23,1.07.15.3.37.52.64.68.27.16.59.24.96.24.25,0,.47-.04.66-.1.2-.07.37-.17.52-.31.15-.14.26-.31.33-.51l1.57.18c-.1.42-.29.78-.57,1.09-.28.31-.63.55-1.06.72-.43.17-.92.25-1.48.25Z"/>
        <path class="cls-2" d="M92.14,29.18v1.3h-4.11v-1.3h4.11ZM89.05,27.47h1.68v6.71c0,.23.03.4.1.52.07.12.16.2.28.24.11.04.24.07.38.07.11,0,.2,0,.29-.02.09-.02.16-.03.2-.04l.28,1.32c-.09.03-.22.06-.38.1s-.37.06-.61.07c-.42.01-.8-.05-1.14-.19-.34-.14-.61-.36-.8-.66-.2-.3-.29-.67-.29-1.12v-6.99Z"/>
        <path class="cls-2" d="M94.73,28.17c-.27,0-.5-.09-.69-.27-.19-.18-.29-.4-.29-.65s.1-.47.29-.64.42-.27.69-.27.5.09.69.27c.19.18.29.4.29.65s-.1.47-.29.64c-.19.18-.42.27-.69.27ZM93.88,36.33v-7.15h1.69v7.15h-1.69Z"/>
        <path class="cls-2" d="M99.31,32.14v4.19h-1.69v-7.15h1.61v1.21h.08c.17-.4.43-.72.79-.95.36-.24.81-.35,1.34-.35.49,0,.92.11,1.29.32.37.21.65.52.86.92.2.4.3.89.3,1.46v4.55h-1.69v-4.29c0-.48-.12-.85-.37-1.12-.25-.27-.59-.4-1.02-.4-.29,0-.56.06-.79.19-.23.13-.41.31-.54.56-.13.24-.19.54-.19.88Z"/>
        <path class="cls-2" d="M109.05,39.16c-.61,0-1.12-.08-1.56-.25-.43-.16-.78-.38-1.05-.65-.26-.27-.45-.58-.55-.91l1.52-.37c.07.14.17.28.3.42.13.14.31.25.53.34s.5.14.84.14c.48,0,.87-.12,1.19-.35.31-.23.47-.61.47-1.14v-1.35h-.08c-.09.17-.21.35-.38.54-.17.18-.38.34-.66.46-.27.12-.61.19-1.02.19-.55,0-1.05-.13-1.49-.39-.44-.26-.8-.65-1.06-1.16-.26-.52-.39-1.16-.39-1.94s.13-1.45.39-1.99c.26-.54.62-.95,1.06-1.23.45-.28.94-.42,1.49-.42.42,0,.76.07,1.04.21.27.14.49.31.65.51s.28.38.37.56h.09v-1.18h1.66v7.26c0,.61-.15,1.12-.44,1.52s-.69.7-1.2.9c-.51.2-1.08.3-1.72.3ZM109.07,34.91c.36,0,.66-.09.91-.26.25-.17.44-.42.57-.75.13-.33.2-.72.2-1.17s-.06-.84-.19-1.18-.32-.6-.57-.79c-.25-.19-.56-.28-.92-.28s-.69.1-.94.29c-.25.2-.44.46-.57.8s-.19.73-.19,1.16.06.82.19,1.15c.13.33.32.58.57.76s.56.27.93.27Z"/>
        <path class="cls-2" d="M118.12,36.33v-9.53h3.57c.73,0,1.35.14,1.84.41.5.27.88.65,1.13,1.12.26.48.38,1.02.38,1.62s-.13,1.15-.39,1.63-.64.85-1.14,1.12c-.5.27-1.12.41-1.86.41h-2.37v-1.42h2.14c.43,0,.78-.08,1.05-.22.27-.15.48-.35.61-.61s.2-.56.2-.9-.07-.64-.2-.89-.33-.46-.61-.6c-.27-.14-.63-.22-1.06-.22h-1.58v8.09h-1.73Z"/>
        <path class="cls-2" d="M128.74,36.47c-.45,0-.86-.08-1.22-.24-.36-.16-.65-.4-.86-.72-.21-.32-.31-.71-.31-1.18,0-.4.08-.74.22-1,.15-.26.35-.47.61-.63.26-.16.55-.28.87-.36s.66-.14,1.01-.18c.42-.04.76-.08,1.02-.12.26-.04.45-.09.57-.17.12-.08.18-.19.18-.36v-.03c0-.35-.1-.62-.31-.81-.21-.19-.51-.29-.9-.29-.41,0-.74.09-.98.27-.24.18-.4.39-.49.64l-1.57-.22c.12-.43.33-.8.61-1.09.29-.29.63-.51,1.05-.66.41-.15.87-.22,1.37-.22.34,0,.69.04,1.03.12.34.08.65.21.94.4s.51.43.68.75c.17.32.26.71.26,1.19v4.78h-1.62v-.98h-.06c-.1.2-.25.38-.43.56s-.42.31-.69.41c-.28.1-.6.16-.97.16ZM129.18,35.24c.34,0,.63-.07.88-.2.25-.13.44-.31.57-.54.13-.22.2-.47.2-.73v-.84c-.05.04-.14.08-.27.12-.12.04-.27.07-.42.1-.16.03-.31.05-.46.08-.15.02-.28.04-.4.06-.25.03-.48.09-.67.17-.2.08-.36.19-.47.32-.12.14-.17.32-.17.53,0,.31.11.54.34.7s.52.24.87.24Z"/>
        <path class="cls-2" d="M134.54,36.33v-7.15h1.63v1.19h.07c.13-.41.35-.73.67-.96.32-.22.68-.34,1.09-.34.09,0,.2,0,.31.01.12,0,.21.02.29.04v1.55c-.07-.03-.18-.05-.34-.07-.15-.02-.3-.03-.44-.03-.31,0-.58.07-.83.2-.24.13-.44.31-.58.55s-.21.5-.21.81v4.2h-1.69Z"/>
        <path class="cls-2" d="M144.02,29.18v1.3h-4.11v-1.3h4.11ZM140.93,27.47h1.68v6.71c0,.23.03.4.1.52.07.12.16.2.28.24.11.04.24.07.38.07.11,0,.2,0,.29-.02.09-.02.16-.03.2-.04l.28,1.32c-.09.03-.22.06-.38.1s-.37.06-.61.07c-.42.01-.8-.05-1.14-.19-.34-.14-.61-.36-.8-.66-.2-.3-.29-.67-.29-1.12v-6.99Z"/>
        <path class="cls-2" d="M147.45,32.14v4.19h-1.69v-7.15h1.61v1.21h.08c.17-.4.43-.72.79-.95.36-.24.81-.35,1.34-.35.49,0,.92.11,1.29.32.37.21.65.52.86.92.2.4.3.89.3,1.46v4.55h-1.69v-4.29c0-.48-.12-.85-.37-1.12-.25-.27-.59-.4-1.02-.4-.29,0-.56.06-.79.19-.23.13-.41.31-.54.56-.13.24-.19.54-.19.88Z"/>
        <path class="cls-2" d="M157.25,36.47c-.72,0-1.33-.15-1.85-.45-.52-.3-.92-.72-1.2-1.28s-.42-1.2-.42-1.95.14-1.38.42-1.94c.28-.56.67-.99,1.18-1.3.51-.31,1.1-.47,1.78-.47.44,0,.86.07,1.25.21.39.14.74.36,1.04.65s.54.67.71,1.12c.17.45.26,1,.26,1.62v.52h-5.86v-1.14h4.24c0-.32-.07-.61-.21-.86s-.33-.45-.57-.6c-.24-.15-.53-.22-.85-.22-.34,0-.65.08-.91.25s-.46.38-.61.65c-.14.27-.22.56-.22.88v.99c0,.42.08.77.23,1.07.15.3.37.52.64.68.27.16.59.24.96.24.25,0,.47-.04.67-.1.2-.07.37-.17.52-.31.15-.14.26-.31.33-.51l1.57.18c-.1.42-.29.78-.57,1.09-.28.31-.63.55-1.06.72-.43.17-.92.25-1.48.25Z"/>
        <path class="cls-2" d="M162.18,36.33v-7.15h1.63v1.19h.07c.13-.41.35-.73.67-.96.32-.22.68-.34,1.09-.34.09,0,.2,0,.31.01.12,0,.21.02.29.04v1.55c-.07-.03-.18-.05-.34-.07-.15-.02-.3-.03-.44-.03-.31,0-.58.07-.83.2-.24.13-.44.31-.58.55s-.21.5-.21.81v4.2h-1.69Z"/>
      </g>
    </g>
  </g>
</svg>