<?xml version="1.0" encoding="UTF-8"?>
<svg id="Layer_2" data-name="Layer 2" xmlns="http://www.w3.org/2000/svg" viewBox="0 0 400 312.24">
  <defs>
    <style>
      .cls-1 {
        fill: #ffe7bb;
      }

      .cls-1, .cls-2 {
        stroke-width: 0px;
      }

      .cls-2 {
        fill: #3f2b00;
      }
    </style>
  </defs>
  <g id="Layer_1-2" data-name="Layer 1">
    <g>
      <rect class="cls-1" x="41.44" y=".41" width="317.12" height="311.41" rx="72.85" ry="72.85"/>
      <path class="cls-2" d="M160.34,35.05c0-3.28,2.65-5.94,5.94-5.94h114.33c3.28,0,5.94,2.65,5.94,5.94s-2.65,5.94-5.94,5.94h-114.33c-3.28,0-5.94-2.65-5.94-5.94ZM166.28,74.52h114.33c3.28,0,5.94-2.65,5.94-5.94s-2.65-5.94-5.94-5.94h-114.33c-3.28,0-5.94,2.65-5.94,5.94s2.65,5.94,5.94,5.94ZM166.28,108.07h114.33c3.28,0,5.94-2.65,5.94-5.94s-2.65-5.94-5.94-5.94l-114.33-.02c-3.28,0-5.94,2.65-5.94,5.94s2.65,5.95,5.94,5.95ZM400,60.59v211.36c0,8.25-6.7,14.96-14.96,14.96l-152.34-.02c-3.81,14.58-17.25,25.35-32.7,25.35s-28.91-10.77-32.7-25.35H14.96c-8.25,0-14.96-6.7-14.96-14.94V60.59c0-8.25,6.7-14.96,14.96-14.96h13.59v-27.83c0-3.18,2.52-5.8,5.7-5.94,30.03-1.22,60.43,1.55,90.5,8.23v-3.28c0-9.27,7.54-16.81,16.81-16.81h163.79c7.93,0,14.56,5.51,16.33,12.9,14.67-1.28,29.45-1.62,44.07-1.02,3.18.14,5.7,2.76,5.7,5.94v27.83h13.59c8.25-.02,14.96,6.69,14.96,14.94h0ZM305.35,137.18h-12.52v30c0,2.26-1.28,4.32-3.32,5.33-.83.41-1.74.61-2.62.61-1.29,0-2.57-.43-3.62-1.22l-8.12-6.24c-.97,8.35-8.08,14.87-16.69,14.87l-52.52-.02v74.28c50.58-25.54,123.91-29.26,153.63-29.66V23.55c-12.44-.29-24.98.12-37.41,1.22v95.58c0,9.29-7.54,16.83-16.81,16.83h0ZM136.63,120.36c0,2.72,2.21,4.93,4.93,4.93h98.63c1.31,0,2.59.43,3.62,1.22l37.14,28.58v-23.87c0-3.28,2.65-5.94,5.94-5.94h18.46c2.72,0,4.93-2.21,4.93-4.93V16.81c0-2.72-2.21-4.93-4.93-4.93h-163.79c-2.72,0-4.93,2.21-4.93,4.93v103.54ZM40.43,225.13c29.72.39,103.03,4.12,153.63,29.66v-74.28h-32.21l-45.1,34.71c-1.05.82-2.33,1.22-3.62,1.22-.9,0-1.79-.2-2.62-.61-2.02-1-3.32-3.06-3.32-5.33v-30h-12.52c-9.27,0-16.81-7.54-16.81-16.81l-.02-103.56c0-9.27,7.54-16.81,16.81-16.81h30.08v-11.04c-28-6.45-56.32-9.36-84.3-8.71v201.56Z"/>
    </g>
  </g>
</svg>